<svg xmlns="http://www.w3.org/2000/svg" xmlns:xlink="http://www.w3.org/1999/xlink" width="500" zoomAndPan="magnify" viewBox="0 0 375 374.999991" height="500" preserveAspectRatio="xMidYMid meet" version="1.0"><defs><g/><clipPath id="634f4f27d0"><rect x="0" width="48" y="0" height="104"/></clipPath><clipPath id="180235e56e"><rect x="0" width="240" y="0" height="55"/></clipPath><clipPath id="dfcd8a72d3"><path d="M 19.300781 134.351562 L 97 134.351562 L 97 186 L 19.300781 186 Z M 19.300781 134.351562 " clip-rule="nonzero"/></clipPath><clipPath id="a85d253e9a"><path d="M 25 156 L 89 156 L 89 205.601562 L 25 205.601562 Z M 25 156 " clip-rule="nonzero"/></clipPath></defs><g transform="matrix(1, 0, 0, 1, 66, 133)"><g clip-path="url(#634f4f27d0)"><g fill="#15803d" fill-opacity="1"><g transform="translate(1.5119, 67.223033)"><g><path d="M 8.4375 0 L 8.4375 -62.0625 L 16.25 -62.0625 L 16.25 -6.953125 L 43.375 -6.953125 L 43.375 0 Z M 8.4375 0 "/></g></g></g></g></g><g transform="matrix(1, 0, 0, 1, 91, 146)"><g clip-path="url(#180235e56e)"><g fill="#097969" fill-opacity="1"><g transform="translate(0.773456, 40.454308)"><g><path d="M 16.765625 0 L 4.015625 0 L 4.015625 -38.734375 L 14.28125 -38.734375 C 17.4375 -38.734375 20.117188 -38.46875 22.328125 -37.9375 C 24.546875 -37.40625 26.242188 -36.460938 27.421875 -35.109375 C 28.597656 -33.753906 29.1875 -31.796875 29.1875 -29.234375 C 29.1875 -27.367188 28.816406 -25.847656 28.078125 -24.671875 C 27.347656 -23.503906 26.394531 -22.632812 25.21875 -22.0625 C 24.050781 -21.5 22.789062 -21.160156 21.4375 -21.046875 L 21.4375 -19.734375 C 23.414062 -19.691406 25.207031 -19.367188 26.8125 -18.765625 C 28.425781 -18.160156 29.695312 -17.171875 30.625 -15.796875 C 31.5625 -14.421875 32.03125 -12.582031 32.03125 -10.28125 C 32.03125 -7.675781 31.40625 -5.625 30.15625 -4.125 C 28.914062 -2.625 27.160156 -1.5625 24.890625 -0.9375 C 22.617188 -0.3125 19.910156 0 16.765625 0 Z M 8.515625 -34.890625 L 8.515625 -22.09375 L 14.453125 -22.09375 C 16.578125 -22.09375 18.398438 -22.25 19.921875 -22.5625 C 21.441406 -22.875 22.613281 -23.484375 23.4375 -24.390625 C 24.257812 -25.304688 24.671875 -26.679688 24.671875 -28.515625 C 24.671875 -30.535156 24.257812 -31.984375 23.4375 -32.859375 C 22.613281 -33.742188 21.441406 -34.300781 19.921875 -34.53125 C 18.398438 -34.769531 16.578125 -34.890625 14.453125 -34.890625 Z M 8.515625 -18.25 L 8.515625 -3.84375 L 16.921875 -3.84375 C 19.117188 -3.84375 21.015625 -4.015625 22.609375 -4.359375 C 24.203125 -4.710938 25.421875 -5.410156 26.265625 -6.453125 C 27.109375 -7.492188 27.53125 -9.023438 27.53125 -11.046875 C 27.53125 -13.867188 26.585938 -15.773438 24.703125 -16.765625 C 22.816406 -17.753906 20.222656 -18.25 16.921875 -18.25 Z M 8.515625 -18.25 "/></g></g></g><g fill="#097969" fill-opacity="1"><g transform="translate(35.001333, 40.454308)"><g><path d="M 14.890625 -3.296875 C 16.835938 -3.296875 18.539062 -3.78125 20 -4.75 C 21.46875 -5.71875 22.625 -7.09375 23.46875 -8.875 C 24.3125 -10.65625 24.734375 -12.753906 24.734375 -15.171875 L 24.734375 -27.3125 L 29.1875 -27.3125 L 29.1875 0 L 24.734375 0 L 24.734375 -4.71875 L 25.4375 -7.859375 L 24.171875 -7.859375 C 23.628906 -5.398438 22.488281 -3.382812 20.75 -1.8125 C 19.007812 -0.238281 16.65625 0.546875 13.6875 0.546875 C 10.570312 0.546875 8.085938 -0.367188 6.234375 -2.203125 C 4.390625 -4.035156 3.46875 -6.835938 3.46875 -10.609375 L 3.46875 -27.3125 L 7.96875 -27.3125 L 7.96875 -11.203125 C 7.96875 -8.347656 8.535156 -6.316406 9.671875 -5.109375 C 10.804688 -3.898438 12.546875 -3.296875 14.890625 -3.296875 Z M 14.890625 -3.296875 "/></g></g></g><g fill="#097969" fill-opacity="1"><g transform="translate(67.526198, 40.454308)"><g><path d="M 25.609375 -7.09375 C 25.609375 -5.738281 25.273438 -4.472656 24.609375 -3.296875 C 23.953125 -2.117188 22.84375 -1.179688 21.28125 -0.484375 C 19.726562 0.203125 17.582031 0.546875 14.84375 0.546875 C 10.40625 0.546875 7.210938 -0.410156 5.265625 -2.328125 C 3.328125 -4.253906 2.359375 -6.832031 2.359375 -10.0625 L 6.875 -10.0625 C 6.875 -5.4375 9.546875 -3.125 14.890625 -3.125 C 17.015625 -3.125 18.582031 -3.40625 19.59375 -3.96875 C 20.601562 -4.539062 21.109375 -5.523438 21.109375 -6.921875 C 21.109375 -8.128906 20.738281 -9.046875 20 -9.671875 C 19.269531 -10.296875 18.289062 -10.804688 17.0625 -11.203125 C 15.832031 -11.609375 14.46875 -12.03125 12.96875 -12.46875 C 11.25 -13.019531 9.679688 -13.609375 8.265625 -14.234375 C 6.859375 -14.859375 5.734375 -15.671875 4.890625 -16.671875 C 4.046875 -17.679688 3.625 -19.007812 3.625 -20.65625 C 3.625 -22.820312 4.503906 -24.5625 6.265625 -25.875 C 8.023438 -27.195312 10.460938 -27.859375 13.578125 -27.859375 C 16.429688 -27.859375 18.664062 -27.410156 20.28125 -26.515625 C 21.894531 -25.617188 23.03125 -24.460938 23.6875 -23.046875 C 24.34375 -21.640625 24.671875 -20.1875 24.671875 -18.6875 L 20.171875 -18.6875 C 20.171875 -22.34375 17.972656 -24.171875 13.578125 -24.171875 C 12.078125 -24.171875 10.796875 -23.925781 9.734375 -23.4375 C 8.671875 -22.945312 8.140625 -22.078125 8.140625 -20.828125 C 8.140625 -19.503906 8.628906 -18.539062 9.609375 -17.9375 C 10.597656 -17.332031 12.191406 -16.664062 14.390625 -15.9375 C 15.753906 -15.5 17.09375 -15.054688 18.40625 -14.609375 C 19.726562 -14.171875 20.925781 -13.648438 22 -13.046875 C 23.082031 -12.441406 23.953125 -11.660156 24.609375 -10.703125 C 25.273438 -9.753906 25.609375 -8.550781 25.609375 -7.09375 Z M 25.609375 -7.09375 "/></g></g></g><g fill="#097969" fill-opacity="1"><g transform="translate(94.941606, 40.454308)"><g><path d="M 12.03125 -31.65625 C 10.894531 -31.65625 9.953125 -32.019531 9.203125 -32.75 C 8.453125 -33.476562 8.078125 -34.394531 8.078125 -35.5 C 8.078125 -36.5625 8.453125 -37.457031 9.203125 -38.1875 C 9.953125 -38.925781 10.894531 -39.296875 12.03125 -39.296875 C 13.132812 -39.296875 14.066406 -38.925781 14.828125 -38.1875 C 15.597656 -37.457031 15.984375 -36.5625 15.984375 -35.5 C 15.984375 -34.394531 15.597656 -33.476562 14.828125 -32.75 C 14.066406 -32.019531 13.132812 -31.65625 12.03125 -31.65625 Z M 22.53125 0 L 2.90625 0 L 2.90625 -3.84375 L 10.609375 -3.84375 L 10.609375 -23.953125 L 4.953125 -23.46875 L 4.953125 -27.3125 L 11.265625 -27.859375 C 12.546875 -27.972656 13.460938 -27.71875 14.015625 -27.09375 C 14.566406 -26.46875 14.84375 -25.625 14.84375 -24.5625 L 14.84375 -3.84375 L 22.53125 -3.84375 Z M 22.53125 0 "/></g></g></g><g fill="#097969" fill-opacity="1"><g transform="translate(119.11549, 40.454308)"><g><path d="M 18.359375 -24.015625 C 15.460938 -24.015625 13.097656 -22.953125 11.265625 -20.828125 C 9.429688 -18.703125 8.515625 -15.789062 8.515625 -12.09375 L 8.515625 0 L 4.015625 0 L 4.015625 -27.3125 L 8.515625 -27.3125 L 8.515625 -22.578125 L 7.796875 -19.453125 L 9.0625 -19.453125 C 9.613281 -21.941406 10.757812 -23.960938 12.5 -25.515625 C 14.238281 -27.078125 16.59375 -27.859375 19.5625 -27.859375 C 22.632812 -27.859375 25.097656 -26.953125 26.953125 -25.140625 C 28.804688 -23.328125 29.734375 -20.515625 29.734375 -16.703125 L 29.734375 0 L 25.28125 0 L 25.28125 -16.09375 C 25.28125 -18.957031 24.710938 -20.992188 23.578125 -22.203125 C 22.441406 -23.410156 20.703125 -24.015625 18.359375 -24.015625 Z M 18.359375 -24.015625 "/></g></g></g><g fill="#097969" fill-opacity="1"><g transform="translate(152.079851, 40.454308)"><g><path d="M 2.90625 -14.015625 C 2.90625 -16.941406 3.472656 -19.441406 4.609375 -21.515625 C 5.742188 -23.585938 7.3125 -25.160156 9.3125 -26.234375 C 11.3125 -27.316406 13.59375 -27.859375 16.15625 -27.859375 C 20 -27.859375 23.082031 -26.691406 25.40625 -24.359375 C 27.738281 -22.035156 28.90625 -18.769531 28.90625 -14.5625 L 28.90625 -12.796875 L 7.3125 -12.796875 C 7.414062 -11.078125 7.78125 -9.484375 8.40625 -8.015625 C 9.03125 -6.554688 10.03125 -5.382812 11.40625 -4.5 C 12.78125 -3.625 14.582031 -3.1875 16.8125 -3.1875 C 19.082031 -3.1875 20.953125 -3.722656 22.421875 -4.796875 C 23.890625 -5.878906 24.859375 -7.46875 25.328125 -9.5625 L 29.84375 -9.5625 C 29.582031 -8.5 29.160156 -7.378906 28.578125 -6.203125 C 27.992188 -5.035156 27.195312 -3.9375 26.1875 -2.90625 C 25.175781 -1.882812 23.898438 -1.050781 22.359375 -0.40625 C 20.828125 0.226562 18.976562 0.546875 16.8125 0.546875 C 13.550781 0.546875 10.894531 -0.117188 8.84375 -1.453125 C 6.789062 -2.796875 5.285156 -4.570312 4.328125 -6.78125 C 3.378906 -9 2.90625 -11.410156 2.90625 -14.015625 Z M 7.3125 -16.21875 L 24.515625 -16.21875 C 24.515625 -18.414062 23.796875 -20.269531 22.359375 -21.78125 C 20.929688 -23.300781 18.863281 -24.0625 16.15625 -24.0625 C 13.476562 -24.0625 11.332031 -23.300781 9.71875 -21.78125 C 8.113281 -20.269531 7.3125 -18.414062 7.3125 -16.21875 Z M 7.3125 -16.21875 "/></g></g></g><g fill="#097969" fill-opacity="1"><g transform="translate(184.110161, 40.454308)"><g><path d="M 25.609375 -7.09375 C 25.609375 -5.738281 25.273438 -4.472656 24.609375 -3.296875 C 23.953125 -2.117188 22.84375 -1.179688 21.28125 -0.484375 C 19.726562 0.203125 17.582031 0.546875 14.84375 0.546875 C 10.40625 0.546875 7.210938 -0.410156 5.265625 -2.328125 C 3.328125 -4.253906 2.359375 -6.832031 2.359375 -10.0625 L 6.875 -10.0625 C 6.875 -5.4375 9.546875 -3.125 14.890625 -3.125 C 17.015625 -3.125 18.582031 -3.40625 19.59375 -3.96875 C 20.601562 -4.539062 21.109375 -5.523438 21.109375 -6.921875 C 21.109375 -8.128906 20.738281 -9.046875 20 -9.671875 C 19.269531 -10.296875 18.289062 -10.804688 17.0625 -11.203125 C 15.832031 -11.609375 14.46875 -12.03125 12.96875 -12.46875 C 11.25 -13.019531 9.679688 -13.609375 8.265625 -14.234375 C 6.859375 -14.859375 5.734375 -15.671875 4.890625 -16.671875 C 4.046875 -17.679688 3.625 -19.007812 3.625 -20.65625 C 3.625 -22.820312 4.503906 -24.5625 6.265625 -25.875 C 8.023438 -27.195312 10.460938 -27.859375 13.578125 -27.859375 C 16.429688 -27.859375 18.664062 -27.410156 20.28125 -26.515625 C 21.894531 -25.617188 23.03125 -24.460938 23.6875 -23.046875 C 24.34375 -21.640625 24.671875 -20.1875 24.671875 -18.6875 L 20.171875 -18.6875 C 20.171875 -22.34375 17.972656 -24.171875 13.578125 -24.171875 C 12.078125 -24.171875 10.796875 -23.925781 9.734375 -23.4375 C 8.671875 -22.945312 8.140625 -22.078125 8.140625 -20.828125 C 8.140625 -19.503906 8.628906 -18.539062 9.609375 -17.9375 C 10.597656 -17.332031 12.191406 -16.664062 14.390625 -15.9375 C 15.753906 -15.5 17.09375 -15.054688 18.40625 -14.609375 C 19.726562 -14.171875 20.925781 -13.648438 22 -13.046875 C 23.082031 -12.441406 23.953125 -11.660156 24.609375 -10.703125 C 25.273438 -9.753906 25.609375 -8.550781 25.609375 -7.09375 Z M 25.609375 -7.09375 "/></g></g></g><g fill="#097969" fill-opacity="1"><g transform="translate(211.415664, 40.454308)"><g><path d="M 25.609375 -7.09375 C 25.609375 -5.738281 25.273438 -4.472656 24.609375 -3.296875 C 23.953125 -2.117188 22.84375 -1.179688 21.28125 -0.484375 C 19.726562 0.203125 17.582031 0.546875 14.84375 0.546875 C 10.40625 0.546875 7.210938 -0.410156 5.265625 -2.328125 C 3.328125 -4.253906 2.359375 -6.832031 2.359375 -10.0625 L 6.875 -10.0625 C 6.875 -5.4375 9.546875 -3.125 14.890625 -3.125 C 17.015625 -3.125 18.582031 -3.40625 19.59375 -3.96875 C 20.601562 -4.539062 21.109375 -5.523438 21.109375 -6.921875 C 21.109375 -8.128906 20.738281 -9.046875 20 -9.671875 C 19.269531 -10.296875 18.289062 -10.804688 17.0625 -11.203125 C 15.832031 -11.609375 14.46875 -12.03125 12.96875 -12.46875 C 11.25 -13.019531 9.679688 -13.609375 8.265625 -14.234375 C 6.859375 -14.859375 5.734375 -15.671875 4.890625 -16.671875 C 4.046875 -17.679688 3.625 -19.007812 3.625 -20.65625 C 3.625 -22.820312 4.503906 -24.5625 6.265625 -25.875 C 8.023438 -27.195312 10.460938 -27.859375 13.578125 -27.859375 C 16.429688 -27.859375 18.664062 -27.410156 20.28125 -26.515625 C 21.894531 -25.617188 23.03125 -24.460938 23.6875 -23.046875 C 24.34375 -21.640625 24.671875 -20.1875 24.671875 -18.6875 L 20.171875 -18.6875 C 20.171875 -22.34375 17.972656 -24.171875 13.578125 -24.171875 C 12.078125 -24.171875 10.796875 -23.925781 9.734375 -23.4375 C 8.671875 -22.945312 8.140625 -22.078125 8.140625 -20.828125 C 8.140625 -19.503906 8.628906 -18.539062 9.609375 -17.9375 C 10.597656 -17.332031 12.191406 -16.664062 14.390625 -15.9375 C 15.753906 -15.5 17.09375 -15.054688 18.40625 -14.609375 C 19.726562 -14.171875 20.925781 -13.648438 22 -13.046875 C 23.082031 -12.441406 23.953125 -11.660156 24.609375 -10.703125 C 25.273438 -9.753906 25.609375 -8.550781 25.609375 -7.09375 Z M 25.609375 -7.09375 "/></g></g></g></g></g><g fill="#15803d" fill-opacity="1"><g transform="translate(118.363847, 199.05838)"><g><path d="M 0.921875 -8.328125 L 1.96875 -8.328125 L 1.96875 0 L 0.921875 0 Z M 0.921875 -8.328125 "/></g></g></g><g fill="#15803d" fill-opacity="1"><g transform="translate(125.654042, 199.05838)"><g><path d="M 0.890625 -6.28125 L 1.921875 -6.28125 L 1.921875 -5.140625 L 2.015625 -5.140625 C 2.171875 -5.503906 2.425781 -5.8125 2.78125 -6.0625 C 3.144531 -6.3125 3.582031 -6.4375 4.09375 -6.4375 C 4.625 -6.4375 5.066406 -6.3125 5.421875 -6.0625 C 5.785156 -5.8125 6.050781 -5.484375 6.21875 -5.078125 C 6.394531 -4.671875 6.484375 -4.226562 6.484375 -3.75 L 6.484375 0 L 5.453125 0 L 5.453125 -3.625 C 5.453125 -4.238281 5.289062 -4.707031 4.96875 -5.03125 C 4.644531 -5.363281 4.226562 -5.53125 3.71875 -5.53125 C 3.164062 -5.53125 2.726562 -5.351562 2.40625 -5 C 2.082031 -4.644531 1.921875 -4.1875 1.921875 -3.625 L 1.921875 0 L 0.890625 0 Z M 0.890625 -6.28125 "/></g></g></g><g fill="#15803d" fill-opacity="1"><g transform="translate(137.290028, 199.05838)"><g><path d="M 3.21875 0.078125 C 2.65625 0.078125 2.175781 -0.0625 1.78125 -0.34375 C 1.394531 -0.632812 1.097656 -1.023438 0.890625 -1.515625 C 0.679688 -2.003906 0.578125 -2.554688 0.578125 -3.171875 C 0.578125 -3.804688 0.679688 -4.367188 0.890625 -4.859375 C 1.097656 -5.347656 1.398438 -5.734375 1.796875 -6.015625 C 2.191406 -6.296875 2.671875 -6.4375 3.234375 -6.4375 C 3.796875 -6.4375 4.25 -6.300781 4.59375 -6.03125 C 4.9375 -5.769531 5.191406 -5.460938 5.359375 -5.109375 L 5.453125 -5.109375 L 5.453125 -8.921875 L 6.484375 -8.921875 L 6.484375 0 L 5.453125 0 L 5.453125 -1.28125 L 5.359375 -1.28125 C 5.171875 -0.90625 4.898438 -0.582031 4.546875 -0.3125 C 4.203125 -0.0507812 3.757812 0.078125 3.21875 0.078125 Z M 3.53125 -0.796875 C 4.144531 -0.796875 4.613281 -1.023438 4.9375 -1.484375 C 5.257812 -1.941406 5.421875 -2.503906 5.421875 -3.171875 C 5.421875 -3.847656 5.257812 -4.410156 4.9375 -4.859375 C 4.613281 -5.316406 4.144531 -5.546875 3.53125 -5.546875 C 2.894531 -5.546875 2.414062 -5.316406 2.09375 -4.859375 C 1.78125 -4.410156 1.625 -3.847656 1.625 -3.171875 C 1.625 -2.492188 1.785156 -1.925781 2.109375 -1.46875 C 2.429688 -1.019531 2.90625 -0.796875 3.53125 -0.796875 Z M 3.53125 -0.796875 "/></g></g></g><g fill="#15803d" fill-opacity="1"><g transform="translate(148.973632, 199.05838)"><g><path d="M 3.53125 0.078125 C 2.894531 0.078125 2.351562 -0.0703125 1.90625 -0.375 C 1.46875 -0.6875 1.140625 -1.09375 0.921875 -1.59375 C 0.710938 -2.09375 0.609375 -2.617188 0.609375 -3.171875 C 0.609375 -3.742188 0.710938 -4.273438 0.921875 -4.765625 C 1.140625 -5.265625 1.46875 -5.664062 1.90625 -5.96875 C 2.351562 -6.28125 2.898438 -6.4375 3.546875 -6.4375 C 4.390625 -6.4375 5.0625 -6.15625 5.5625 -5.59375 C 6.070312 -5.03125 6.328125 -4.222656 6.328125 -3.171875 L 6.328125 -2.875 L 1.625 -2.875 L 1.625 -2.796875 C 1.625 -2.453125 1.703125 -2.125 1.859375 -1.8125 C 2.023438 -1.5 2.25 -1.25 2.53125 -1.0625 C 2.820312 -0.875 3.15625 -0.78125 3.53125 -0.78125 C 3.925781 -0.78125 4.269531 -0.878906 4.5625 -1.078125 C 4.863281 -1.285156 5.085938 -1.566406 5.234375 -1.921875 L 6.234375 -1.921875 C 6.066406 -1.347656 5.753906 -0.867188 5.296875 -0.484375 C 4.847656 -0.109375 4.257812 0.078125 3.53125 0.078125 Z M 5.3125 -3.609375 C 5.28125 -4.316406 5.101562 -4.828125 4.78125 -5.140625 C 4.46875 -5.460938 4.050781 -5.625 3.53125 -5.625 C 2.96875 -5.625 2.519531 -5.4375 2.1875 -5.0625 C 1.851562 -4.695312 1.675781 -4.210938 1.65625 -3.609375 Z M 5.3125 -3.609375 "/></g></g></g><g fill="#15803d" fill-opacity="1"><g transform="translate(160.109511, 199.05838)"><g><path d="M 2.46875 -3.140625 L 0.40625 -6.28125 L 1.5625 -6.28125 L 3.171875 -3.734375 L 3.203125 -3.734375 L 4.796875 -6.28125 L 5.953125 -6.28125 L 3.875 -3.140625 L 5.9375 0 L 4.78125 0 L 3.203125 -2.53125 L 3.171875 -2.53125 L 1.578125 0 L 0.40625 0 Z M 2.46875 -3.140625 "/></g></g></g><g fill="#15803d" fill-opacity="1"><g transform="translate(171.031111, 199.05838)"><g><path d="M 1.625 0.078125 C 1.425781 0.078125 1.257812 0.0078125 1.125 -0.125 C 1 -0.257812 0.9375 -0.425781 0.9375 -0.625 C 0.9375 -0.8125 1 -0.96875 1.125 -1.09375 C 1.257812 -1.226562 1.425781 -1.296875 1.625 -1.296875 C 1.820312 -1.296875 1.988281 -1.226562 2.125 -1.09375 C 2.257812 -0.96875 2.328125 -0.8125 2.328125 -0.625 C 2.328125 -0.425781 2.257812 -0.257812 2.125 -0.125 C 1.988281 0.0078125 1.820312 0.078125 1.625 0.078125 Z M 1.625 0.078125 "/></g></g></g><g fill="#15803d" fill-opacity="1"><g transform="translate(178.595128, 199.05838)"><g><path d="M 1.625 0.078125 C 1.425781 0.078125 1.257812 0.0078125 1.125 -0.125 C 1 -0.257812 0.9375 -0.425781 0.9375 -0.625 C 0.9375 -0.8125 1 -0.96875 1.125 -1.09375 C 1.257812 -1.226562 1.425781 -1.296875 1.625 -1.296875 C 1.820312 -1.296875 1.988281 -1.226562 2.125 -1.09375 C 2.257812 -0.96875 2.328125 -0.8125 2.328125 -0.625 C 2.328125 -0.425781 2.257812 -0.257812 2.125 -0.125 C 1.988281 0.0078125 1.820312 0.078125 1.625 0.078125 Z M 1.625 0.078125 "/></g></g></g><g fill="#15803d" fill-opacity="1"><g transform="translate(186.159146, 199.05838)"><g><path d="M 1.625 0.078125 C 1.425781 0.078125 1.257812 0.0078125 1.125 -0.125 C 1 -0.257812 0.9375 -0.425781 0.9375 -0.625 C 0.9375 -0.8125 1 -0.96875 1.125 -1.09375 C 1.257812 -1.226562 1.425781 -1.296875 1.625 -1.296875 C 1.820312 -1.296875 1.988281 -1.226562 2.125 -1.09375 C 2.257812 -0.96875 2.328125 -0.8125 2.328125 -0.625 C 2.328125 -0.425781 2.257812 -0.257812 2.125 -0.125 C 1.988281 0.0078125 1.820312 0.078125 1.625 0.078125 Z M 1.625 0.078125 "/></g></g></g><g clip-path="url(#dfcd8a72d3)"><path fill="#15803d" d="M 34.554688 153.097656 C 34.554688 159.457031 36.179688 166.78125 49.953125 172.265625 C 46.109375 174.316406 42.222656 176.167969 38.289062 177.855469 C 36.738281 178.503906 35.171875 179.136719 33.605469 179.738281 C 31.675781 180.476562 29.746094 181.15625 27.785156 181.804688 C 26.175781 182.332031 20.839844 183.566406 22.890625 180.042969 C 24.066406 178.023438 25.992188 176.09375 27.878906 174.632812 L 27.878906 171.195312 C 25.4375 173.441406 21.335938 176.800781 20.175781 179.921875 C 19.316406 182.226562 19.800781 183.855469 21.863281 184.652344 C 24.171875 185.570312 27.921875 185 32.535156 183.460938 C 34.566406 182.785156 36.785156 181.910156 39.105469 180.886719 C 43.625 178.910156 48.582031 176.363281 53.585938 173.589844 C 58.226562 171.015625 62.898438 168.226562 67.328125 165.5 C 77.667969 159.109375 86.585938 152.976562 90.203125 150.324219 L 90.265625 154.09375 C 92.417969 149.902344 94.847656 146.042969 97 141.839844 C 92.675781 142.957031 88.09375 143.722656 83.753906 144.839844 L 86.980469 146.980469 C 79.519531 153.113281 71.863281 158.839844 64.015625 163.949219 C 62.582031 163.34375 61.015625 162.757812 59.328125 162.183594 C 54.792969 160.617188 46.609375 158.3125 46.609375 152.359375 C 46.609375 147.566406 51.898438 145.503906 56.027344 145.503906 C 64.617188 145.503906 67.839844 152.929688 69.90625 152.929688 C 72.210938 152.929688 76.507812 145.410156 76.507812 143.105469 C 76.507812 140.710938 68.007812 134.351562 56.027344 134.351562 C 39.253906 134.351562 34.554688 146.164062 34.554688 153.097656 Z M 34.554688 153.097656 " fill-opacity="1" fill-rule="evenodd"/></g><g clip-path="url(#a85d253e9a)"><path fill="#097969" d="M 61.226562 176.453125 C 64.300781 178.066406 66.847656 180.371094 66.847656 183.914062 C 66.847656 189.039062 61.390625 191.75 55.121094 191.75 C 48.222656 191.75 44.210938 189.21875 41.800781 186.128906 C 43.277344 185.511719 44.589844 184.910156 45.628906 184.457031 C 50.964844 182.089844 56.148438 179.421875 61.226562 176.453125 Z M 32.351562 187.199219 C 29.820312 187.667969 27.335938 187.652344 25.058594 186.703125 C 26.566406 188.992188 29.371094 189.429688 32.519531 188.992188 C 34.117188 200.1875 45.101562 205.554688 55.953125 205.554688 C 73.371094 205.554688 80.230469 193.738281 80.230469 184.15625 C 80.230469 179.03125 78.707031 173.695312 72.828125 168.996094 C 78.285156 165.152344 83.605469 160.980469 88.773438 156.457031 C 83.300781 160.527344 77.667969 164.460938 71.757812 168.183594 C 67.722656 170.742188 63.546875 173.199219 59.222656 175.519531 C 54.730469 177.933594 50.089844 180.222656 45.222656 182.332031 C 43.789062 182.949219 42.253906 183.671875 40.640625 184.382812 C 37.972656 185.558594 35.125 186.6875 32.351562 187.199219 Z M 32.351562 187.199219 " fill-opacity="1" fill-rule="evenodd"/></g></svg>