<svg xmlns="http://www.w3.org/2000/svg" xmlns:xlink="http://www.w3.org/1999/xlink" width="500" zoomAndPan="magnify" viewBox="0 0 375 374.999991" height="500" preserveAspectRatio="xMidYMid meet" version="1.0"><defs><g/><clipPath id="c1b3f9a61c"><path d="M 62 0.558594 L 134 0.558594 L 134 156.078125 L 62 156.078125 Z M 62 0.558594 " clip-rule="nonzero"/></clipPath><clipPath id="cc73f8b2e4"><rect x="0" width="72" y="0" height="157"/></clipPath><clipPath id="8503764b03"><path d="M 0.921875 6.503906 L 108.628906 6.503906 L 108.628906 78 L 0.921875 78 Z M 0.921875 6.503906 " clip-rule="nonzero"/></clipPath><clipPath id="013068a9c4"><path d="M 8 37 L 97 37 L 97 105.730469 L 8 105.730469 Z M 8 37 " clip-rule="nonzero"/></clipPath><clipPath id="2a0b4cb79b"><path d="M 98 34 L 337.878906 34 L 337.878906 88 L 98 88 Z M 98 34 " clip-rule="nonzero"/></clipPath><clipPath id="6e717235e7"><path d="M 97 0.160156 L 118 0.160156 L 118 41 L 97 41 Z M 97 0.160156 " clip-rule="nonzero"/></clipPath><clipPath id="f42d2cd34e"><rect x="0" width="240" y="0" height="54"/></clipPath><clipPath id="423f359c5a"><rect x="0" width="338" y="0" height="157"/></clipPath></defs><g transform="matrix(1, 0, 0, 1, 19, 100)"><g clip-path="url(#423f359c5a)"><g clip-path="url(#c1b3f9a61c)"><g transform="matrix(1, 0, 0, 1, 62, 0)"><g clip-path="url(#cc73f8b2e4)"><g fill="#097969" fill-opacity="1"><g transform="translate(1.895951, 101.530293)"><g><path d="M 12.84375 0 L 12.84375 -94.5 L 24.75 -94.5 L 24.75 -10.59375 L 66.046875 -10.59375 L 66.046875 0 Z M 12.84375 0 "/></g></g></g></g></g></g><g clip-path="url(#8503764b03)"><path fill="#15803d" d="M 21.511719 32.582031 C 21.511719 41.429688 23.773438 51.617188 42.9375 59.25 C 37.589844 62.101562 32.183594 64.679688 26.710938 67.027344 C 24.550781 67.929688 22.371094 68.808594 20.191406 69.648438 C 17.507812 70.675781 14.824219 71.617188 12.097656 72.519531 C 9.855469 73.253906 2.433594 74.972656 5.285156 70.066406 C 6.917969 67.257812 9.601562 64.574219 12.222656 62.539062 L 12.222656 57.761719 C 8.828125 60.882812 3.125 65.558594 1.511719 69.898438 C 0.316406 73.105469 0.988281 75.371094 3.859375 76.480469 C 7.066406 77.761719 12.285156 76.964844 18.703125 74.824219 C 21.53125 73.882812 24.613281 72.667969 27.84375 71.242188 C 34.132812 68.496094 41.027344 64.953125 47.988281 61.09375 C 54.445312 57.507812 60.945312 53.632812 67.109375 49.835938 C 81.488281 40.949219 93.902344 32.414062 98.933594 28.726562 L 99.015625 33.964844 C 102.015625 28.136719 105.390625 22.769531 108.386719 16.921875 C 102.371094 18.472656 95.996094 19.542969 89.960938 21.09375 L 94.445312 24.070312 C 84.070312 32.605469 73.417969 40.570312 62.496094 47.675781 C 60.503906 46.839844 58.324219 46.019531 55.976562 45.222656 C 49.667969 43.042969 38.28125 39.835938 38.28125 31.554688 C 38.28125 24.890625 45.640625 22.015625 51.386719 22.015625 C 63.335938 22.015625 67.820312 32.351562 70.691406 32.351562 C 73.902344 32.351562 79.875 21.890625 79.875 18.683594 C 79.875 15.351562 68.050781 6.503906 51.386719 6.503906 C 28.050781 6.503906 21.511719 22.9375 21.511719 32.582031 Z M 21.511719 32.582031 " fill-opacity="1" fill-rule="evenodd"/></g><g clip-path="url(#013068a9c4)"><path fill="#097969" d="M 58.617188 65.078125 C 62.894531 67.320312 66.4375 70.527344 66.4375 75.453125 C 66.4375 82.582031 58.847656 86.355469 50.128906 86.355469 C 40.527344 86.355469 34.949219 82.835938 31.59375 78.535156 C 33.648438 77.675781 35.472656 76.839844 36.917969 76.210938 C 44.339844 72.917969 51.554688 69.207031 58.617188 65.078125 Z M 18.449219 80.023438 C 14.929688 80.675781 11.46875 80.652344 8.304688 79.332031 C 10.398438 82.519531 14.300781 83.128906 18.679688 82.519531 C 20.902344 98.097656 36.1875 105.558594 51.28125 105.558594 C 75.515625 105.558594 85.054688 89.125 85.054688 75.789062 C 85.054688 68.664062 82.9375 61.242188 74.761719 54.699219 C 82.347656 49.355469 89.75 43.546875 96.941406 37.257812 C 89.332031 42.917969 81.488281 48.390625 73.273438 53.566406 C 67.652344 57.132812 61.847656 60.550781 55.828125 63.777344 C 49.582031 67.132812 43.125 70.320312 36.355469 73.253906 C 34.363281 74.113281 32.222656 75.121094 29.980469 76.105469 C 26.269531 77.738281 22.308594 79.3125 18.449219 80.023438 Z M 18.449219 80.023438 " fill-opacity="1" fill-rule="evenodd"/></g><g clip-path="url(#2a0b4cb79b)"><g transform="matrix(1, 0, 0, 1, 98, 34)"><g clip-path="url(#f42d2cd34e)"><g fill="#097969" fill-opacity="1"><g transform="translate(0.59424, 40.133822)"><g><path d="M 16.765625 0 L 4.015625 0 L 4.015625 -38.734375 L 14.28125 -38.734375 C 17.4375 -38.734375 20.117188 -38.46875 22.328125 -37.9375 C 24.546875 -37.40625 26.242188 -36.460938 27.421875 -35.109375 C 28.597656 -33.753906 29.1875 -31.796875 29.1875 -29.234375 C 29.1875 -27.367188 28.816406 -25.847656 28.078125 -24.671875 C 27.347656 -23.503906 26.394531 -22.632812 25.21875 -22.0625 C 24.050781 -21.5 22.789062 -21.160156 21.4375 -21.046875 L 21.4375 -19.734375 C 23.414062 -19.691406 25.207031 -19.367188 26.8125 -18.765625 C 28.425781 -18.160156 29.695312 -17.171875 30.625 -15.796875 C 31.5625 -14.421875 32.03125 -12.582031 32.03125 -10.28125 C 32.03125 -7.675781 31.40625 -5.625 30.15625 -4.125 C 28.914062 -2.625 27.160156 -1.5625 24.890625 -0.9375 C 22.617188 -0.3125 19.910156 0 16.765625 0 Z M 8.515625 -34.890625 L 8.515625 -22.09375 L 14.453125 -22.09375 C 16.578125 -22.09375 18.398438 -22.25 19.921875 -22.5625 C 21.441406 -22.875 22.613281 -23.484375 23.4375 -24.390625 C 24.257812 -25.304688 24.671875 -26.679688 24.671875 -28.515625 C 24.671875 -30.535156 24.257812 -31.984375 23.4375 -32.859375 C 22.613281 -33.742188 21.441406 -34.300781 19.921875 -34.53125 C 18.398438 -34.769531 16.578125 -34.890625 14.453125 -34.890625 Z M 8.515625 -18.25 L 8.515625 -3.84375 L 16.921875 -3.84375 C 19.117188 -3.84375 21.015625 -4.015625 22.609375 -4.359375 C 24.203125 -4.710938 25.421875 -5.410156 26.265625 -6.453125 C 27.109375 -7.492188 27.53125 -9.023438 27.53125 -11.046875 C 27.53125 -13.867188 26.585938 -15.773438 24.703125 -16.765625 C 22.816406 -17.753906 20.222656 -18.25 16.921875 -18.25 Z M 8.515625 -18.25 "/></g></g></g><g fill="#097969" fill-opacity="1"><g transform="translate(34.822112, 40.133822)"><g><path d="M 14.890625 -3.296875 C 16.835938 -3.296875 18.539062 -3.78125 20 -4.75 C 21.46875 -5.71875 22.625 -7.09375 23.46875 -8.875 C 24.3125 -10.65625 24.734375 -12.753906 24.734375 -15.171875 L 24.734375 -27.3125 L 29.1875 -27.3125 L 29.1875 0 L 24.734375 0 L 24.734375 -4.71875 L 25.4375 -7.859375 L 24.171875 -7.859375 C 23.628906 -5.398438 22.488281 -3.382812 20.75 -1.8125 C 19.007812 -0.238281 16.65625 0.546875 13.6875 0.546875 C 10.570312 0.546875 8.085938 -0.367188 6.234375 -2.203125 C 4.390625 -4.035156 3.46875 -6.835938 3.46875 -10.609375 L 3.46875 -27.3125 L 7.96875 -27.3125 L 7.96875 -11.203125 C 7.96875 -8.347656 8.535156 -6.316406 9.671875 -5.109375 C 10.804688 -3.898438 12.546875 -3.296875 14.890625 -3.296875 Z M 14.890625 -3.296875 "/></g></g></g><g fill="#097969" fill-opacity="1"><g transform="translate(67.346972, 40.133822)"><g><path d="M 25.609375 -7.09375 C 25.609375 -5.738281 25.273438 -4.472656 24.609375 -3.296875 C 23.953125 -2.117188 22.84375 -1.179688 21.28125 -0.484375 C 19.726562 0.203125 17.582031 0.546875 14.84375 0.546875 C 10.40625 0.546875 7.210938 -0.410156 5.265625 -2.328125 C 3.328125 -4.253906 2.359375 -6.832031 2.359375 -10.0625 L 6.875 -10.0625 C 6.875 -5.4375 9.546875 -3.125 14.890625 -3.125 C 17.015625 -3.125 18.582031 -3.40625 19.59375 -3.96875 C 20.601562 -4.539062 21.109375 -5.523438 21.109375 -6.921875 C 21.109375 -8.128906 20.738281 -9.046875 20 -9.671875 C 19.269531 -10.296875 18.289062 -10.804688 17.0625 -11.203125 C 15.832031 -11.609375 14.46875 -12.03125 12.96875 -12.46875 C 11.25 -13.019531 9.679688 -13.609375 8.265625 -14.234375 C 6.859375 -14.859375 5.734375 -15.671875 4.890625 -16.671875 C 4.046875 -17.679688 3.625 -19.007812 3.625 -20.65625 C 3.625 -22.820312 4.503906 -24.5625 6.265625 -25.875 C 8.023438 -27.195312 10.460938 -27.859375 13.578125 -27.859375 C 16.429688 -27.859375 18.664062 -27.410156 20.28125 -26.515625 C 21.894531 -25.617188 23.03125 -24.460938 23.6875 -23.046875 C 24.34375 -21.640625 24.671875 -20.1875 24.671875 -18.6875 L 20.171875 -18.6875 C 20.171875 -22.34375 17.972656 -24.171875 13.578125 -24.171875 C 12.078125 -24.171875 10.796875 -23.925781 9.734375 -23.4375 C 8.671875 -22.945312 8.140625 -22.078125 8.140625 -20.828125 C 8.140625 -19.503906 8.628906 -18.539062 9.609375 -17.9375 C 10.597656 -17.332031 12.191406 -16.664062 14.390625 -15.9375 C 15.753906 -15.5 17.09375 -15.054688 18.40625 -14.609375 C 19.726562 -14.171875 20.925781 -13.648438 22 -13.046875 C 23.082031 -12.441406 23.953125 -11.660156 24.609375 -10.703125 C 25.273438 -9.753906 25.609375 -8.550781 25.609375 -7.09375 Z M 25.609375 -7.09375 "/></g></g></g><g clip-path="url(#6e717235e7)"><g fill="#097969" fill-opacity="1"><g transform="translate(94.762375, 40.133822)"><g><path d="M 12.03125 -31.65625 C 10.894531 -31.65625 9.953125 -32.019531 9.203125 -32.75 C 8.453125 -33.476562 8.078125 -34.394531 8.078125 -35.5 C 8.078125 -36.5625 8.453125 -37.457031 9.203125 -38.1875 C 9.953125 -38.925781 10.894531 -39.296875 12.03125 -39.296875 C 13.132812 -39.296875 14.066406 -38.925781 14.828125 -38.1875 C 15.597656 -37.457031 15.984375 -36.5625 15.984375 -35.5 C 15.984375 -34.394531 15.597656 -33.476562 14.828125 -32.75 C 14.066406 -32.019531 13.132812 -31.65625 12.03125 -31.65625 Z M 22.53125 0 L 2.90625 0 L 2.90625 -3.84375 L 10.609375 -3.84375 L 10.609375 -23.953125 L 4.953125 -23.46875 L 4.953125 -27.3125 L 11.265625 -27.859375 C 12.546875 -27.972656 13.460938 -27.71875 14.015625 -27.09375 C 14.566406 -26.46875 14.84375 -25.625 14.84375 -24.5625 L 14.84375 -3.84375 L 22.53125 -3.84375 Z M 22.53125 0 "/></g></g></g></g><g fill="#097969" fill-opacity="1"><g transform="translate(118.936256, 40.133822)"><g><path d="M 18.359375 -24.015625 C 15.460938 -24.015625 13.097656 -22.953125 11.265625 -20.828125 C 9.429688 -18.703125 8.515625 -15.789062 8.515625 -12.09375 L 8.515625 0 L 4.015625 0 L 4.015625 -27.3125 L 8.515625 -27.3125 L 8.515625 -22.578125 L 7.796875 -19.453125 L 9.0625 -19.453125 C 9.613281 -21.941406 10.757812 -23.960938 12.5 -25.515625 C 14.238281 -27.078125 16.59375 -27.859375 19.5625 -27.859375 C 22.632812 -27.859375 25.097656 -26.953125 26.953125 -25.140625 C 28.804688 -23.328125 29.734375 -20.515625 29.734375 -16.703125 L 29.734375 0 L 25.28125 0 L 25.28125 -16.09375 C 25.28125 -18.957031 24.710938 -20.992188 23.578125 -22.203125 C 22.441406 -23.410156 20.703125 -24.015625 18.359375 -24.015625 Z M 18.359375 -24.015625 "/></g></g></g><g fill="#097969" fill-opacity="1"><g transform="translate(151.900612, 40.133822)"><g><path d="M 2.90625 -14.015625 C 2.90625 -16.941406 3.472656 -19.441406 4.609375 -21.515625 C 5.742188 -23.585938 7.3125 -25.160156 9.3125 -26.234375 C 11.3125 -27.316406 13.59375 -27.859375 16.15625 -27.859375 C 20 -27.859375 23.082031 -26.691406 25.40625 -24.359375 C 27.738281 -22.035156 28.90625 -18.769531 28.90625 -14.5625 L 28.90625 -12.796875 L 7.3125 -12.796875 C 7.414062 -11.078125 7.78125 -9.484375 8.40625 -8.015625 C 9.03125 -6.554688 10.03125 -5.382812 11.40625 -4.5 C 12.78125 -3.625 14.582031 -3.1875 16.8125 -3.1875 C 19.082031 -3.1875 20.953125 -3.722656 22.421875 -4.796875 C 23.890625 -5.878906 24.859375 -7.46875 25.328125 -9.5625 L 29.84375 -9.5625 C 29.582031 -8.5 29.160156 -7.378906 28.578125 -6.203125 C 27.992188 -5.035156 27.195312 -3.9375 26.1875 -2.90625 C 25.175781 -1.882812 23.898438 -1.050781 22.359375 -0.40625 C 20.828125 0.226562 18.976562 0.546875 16.8125 0.546875 C 13.550781 0.546875 10.894531 -0.117188 8.84375 -1.453125 C 6.789062 -2.796875 5.285156 -4.570312 4.328125 -6.78125 C 3.378906 -9 2.90625 -11.410156 2.90625 -14.015625 Z M 7.3125 -16.21875 L 24.515625 -16.21875 C 24.515625 -18.414062 23.796875 -20.269531 22.359375 -21.78125 C 20.929688 -23.300781 18.863281 -24.0625 16.15625 -24.0625 C 13.476562 -24.0625 11.332031 -23.300781 9.71875 -21.78125 C 8.113281 -20.269531 7.3125 -18.414062 7.3125 -16.21875 Z M 7.3125 -16.21875 "/></g></g></g><g fill="#097969" fill-opacity="1"><g transform="translate(183.930917, 40.133822)"><g><path d="M 25.609375 -7.09375 C 25.609375 -5.738281 25.273438 -4.472656 24.609375 -3.296875 C 23.953125 -2.117188 22.84375 -1.179688 21.28125 -0.484375 C 19.726562 0.203125 17.582031 0.546875 14.84375 0.546875 C 10.40625 0.546875 7.210938 -0.410156 5.265625 -2.328125 C 3.328125 -4.253906 2.359375 -6.832031 2.359375 -10.0625 L 6.875 -10.0625 C 6.875 -5.4375 9.546875 -3.125 14.890625 -3.125 C 17.015625 -3.125 18.582031 -3.40625 19.59375 -3.96875 C 20.601562 -4.539062 21.109375 -5.523438 21.109375 -6.921875 C 21.109375 -8.128906 20.738281 -9.046875 20 -9.671875 C 19.269531 -10.296875 18.289062 -10.804688 17.0625 -11.203125 C 15.832031 -11.609375 14.46875 -12.03125 12.96875 -12.46875 C 11.25 -13.019531 9.679688 -13.609375 8.265625 -14.234375 C 6.859375 -14.859375 5.734375 -15.671875 4.890625 -16.671875 C 4.046875 -17.679688 3.625 -19.007812 3.625 -20.65625 C 3.625 -22.820312 4.503906 -24.5625 6.265625 -25.875 C 8.023438 -27.195312 10.460938 -27.859375 13.578125 -27.859375 C 16.429688 -27.859375 18.664062 -27.410156 20.28125 -26.515625 C 21.894531 -25.617188 23.03125 -24.460938 23.6875 -23.046875 C 24.34375 -21.640625 24.671875 -20.1875 24.671875 -18.6875 L 20.171875 -18.6875 C 20.171875 -22.34375 17.972656 -24.171875 13.578125 -24.171875 C 12.078125 -24.171875 10.796875 -23.925781 9.734375 -23.4375 C 8.671875 -22.945312 8.140625 -22.078125 8.140625 -20.828125 C 8.140625 -19.503906 8.628906 -18.539062 9.609375 -17.9375 C 10.597656 -17.332031 12.191406 -16.664062 14.390625 -15.9375 C 15.753906 -15.5 17.09375 -15.054688 18.40625 -14.609375 C 19.726562 -14.171875 20.925781 -13.648438 22 -13.046875 C 23.082031 -12.441406 23.953125 -11.660156 24.609375 -10.703125 C 25.273438 -9.753906 25.609375 -8.550781 25.609375 -7.09375 Z M 25.609375 -7.09375 "/></g></g></g><g fill="#097969" fill-opacity="1"><g transform="translate(211.236415, 40.133822)"><g><path d="M 25.609375 -7.09375 C 25.609375 -5.738281 25.273438 -4.472656 24.609375 -3.296875 C 23.953125 -2.117188 22.84375 -1.179688 21.28125 -0.484375 C 19.726562 0.203125 17.582031 0.546875 14.84375 0.546875 C 10.40625 0.546875 7.210938 -0.410156 5.265625 -2.328125 C 3.328125 -4.253906 2.359375 -6.832031 2.359375 -10.0625 L 6.875 -10.0625 C 6.875 -5.4375 9.546875 -3.125 14.890625 -3.125 C 17.015625 -3.125 18.582031 -3.40625 19.59375 -3.96875 C 20.601562 -4.539062 21.109375 -5.523438 21.109375 -6.921875 C 21.109375 -8.128906 20.738281 -9.046875 20 -9.671875 C 19.269531 -10.296875 18.289062 -10.804688 17.0625 -11.203125 C 15.832031 -11.609375 14.46875 -12.03125 12.96875 -12.46875 C 11.25 -13.019531 9.679688 -13.609375 8.265625 -14.234375 C 6.859375 -14.859375 5.734375 -15.671875 4.890625 -16.671875 C 4.046875 -17.679688 3.625 -19.007812 3.625 -20.65625 C 3.625 -22.820312 4.503906 -24.5625 6.265625 -25.875 C 8.023438 -27.195312 10.460938 -27.859375 13.578125 -27.859375 C 16.429688 -27.859375 18.664062 -27.410156 20.28125 -26.515625 C 21.894531 -25.617188 23.03125 -24.460938 23.6875 -23.046875 C 24.34375 -21.640625 24.671875 -20.1875 24.671875 -18.6875 L 20.171875 -18.6875 C 20.171875 -22.34375 17.972656 -24.171875 13.578125 -24.171875 C 12.078125 -24.171875 10.796875 -23.925781 9.734375 -23.4375 C 8.671875 -22.945312 8.140625 -22.078125 8.140625 -20.828125 C 8.140625 -19.503906 8.628906 -18.539062 9.609375 -17.9375 C 10.597656 -17.332031 12.191406 -16.664062 14.390625 -15.9375 C 15.753906 -15.5 17.09375 -15.054688 18.40625 -14.609375 C 19.726562 -14.171875 20.925781 -13.648438 22 -13.046875 C 23.082031 -12.441406 23.953125 -11.660156 24.609375 -10.703125 C 25.273438 -9.753906 25.609375 -8.550781 25.609375 -7.09375 Z M 25.609375 -7.09375 "/></g></g></g></g></g></g><g fill="#15803d" fill-opacity="1"><g transform="translate(185.339823, 101.117004)"><g><path d="M 1.234375 -11.140625 L 2.625 -11.140625 L 2.625 0 L 1.234375 0 Z M 1.234375 -11.140625 "/></g></g></g><g fill="#15803d" fill-opacity="1"><g transform="translate(195.077064, 101.117004)"><g><path d="M 1.1875 -8.375 L 2.5625 -8.375 L 2.5625 -6.875 L 2.6875 -6.875 C 2.894531 -7.363281 3.238281 -7.773438 3.71875 -8.109375 C 4.195312 -8.441406 4.78125 -8.609375 5.46875 -8.609375 C 6.175781 -8.609375 6.769531 -8.441406 7.25 -8.109375 C 7.726562 -7.773438 8.082031 -7.332031 8.3125 -6.78125 C 8.539062 -6.238281 8.65625 -5.648438 8.65625 -5.015625 L 8.65625 0 L 7.28125 0 L 7.28125 -4.828125 C 7.28125 -5.660156 7.066406 -6.289062 6.640625 -6.71875 C 6.210938 -7.15625 5.65625 -7.375 4.96875 -7.375 C 4.226562 -7.375 3.640625 -7.140625 3.203125 -6.671875 C 2.773438 -6.203125 2.5625 -5.585938 2.5625 -4.828125 L 2.5625 0 L 1.1875 0 Z M 1.1875 -8.375 "/></g></g></g><g fill="#15803d" fill-opacity="1"><g transform="translate(210.61869, 101.117004)"><g><path d="M 4.296875 0.109375 C 3.554688 0.109375 2.921875 -0.078125 2.390625 -0.453125 C 1.867188 -0.835938 1.46875 -1.359375 1.1875 -2.015625 C 0.914062 -2.671875 0.78125 -3.414062 0.78125 -4.25 C 0.78125 -5.082031 0.914062 -5.828125 1.1875 -6.484375 C 1.46875 -7.140625 1.875 -7.65625 2.40625 -8.03125 C 2.9375 -8.414062 3.578125 -8.609375 4.328125 -8.609375 C 5.066406 -8.609375 5.664062 -8.429688 6.125 -8.078125 C 6.59375 -7.722656 6.9375 -7.304688 7.15625 -6.828125 L 7.28125 -6.828125 L 7.28125 -11.9375 L 8.65625 -11.9375 L 8.65625 0 L 7.28125 0 L 7.28125 -1.71875 L 7.15625 -1.71875 C 6.90625 -1.207031 6.546875 -0.773438 6.078125 -0.421875 C 5.617188 -0.0664062 5.023438 0.109375 4.296875 0.109375 Z M 4.703125 -1.0625 C 5.535156 -1.0625 6.164062 -1.363281 6.59375 -1.96875 C 7.03125 -2.582031 7.25 -3.34375 7.25 -4.25 C 7.25 -5.144531 7.03125 -5.894531 6.59375 -6.5 C 6.164062 -7.101562 5.535156 -7.40625 4.703125 -7.40625 C 3.867188 -7.40625 3.238281 -7.101562 2.8125 -6.5 C 2.382812 -5.894531 2.171875 -5.144531 2.171875 -4.25 C 2.171875 -3.332031 2.382812 -2.570312 2.8125 -1.96875 C 3.25 -1.363281 3.878906 -1.0625 4.703125 -1.0625 Z M 4.703125 -1.0625 "/></g></g></g><g fill="#15803d" fill-opacity="1"><g transform="translate(226.223893, 101.117004)"><g><path d="M 4.71875 0.109375 C 3.863281 0.109375 3.140625 -0.09375 2.546875 -0.5 C 1.960938 -0.914062 1.523438 -1.457031 1.234375 -2.125 C 0.953125 -2.800781 0.8125 -3.507812 0.8125 -4.25 C 0.8125 -5 0.953125 -5.703125 1.234375 -6.359375 C 1.523438 -7.023438 1.96875 -7.566406 2.5625 -7.984375 C 3.15625 -8.398438 3.878906 -8.609375 4.734375 -8.609375 C 5.859375 -8.609375 6.757812 -8.226562 7.4375 -7.46875 C 8.113281 -6.71875 8.453125 -5.640625 8.453125 -4.234375 L 8.453125 -3.84375 L 2.171875 -3.84375 L 2.171875 -3.734375 C 2.171875 -3.265625 2.273438 -2.820312 2.484375 -2.40625 C 2.703125 -2 3 -1.664062 3.375 -1.40625 C 3.757812 -1.15625 4.203125 -1.03125 4.703125 -1.03125 C 5.242188 -1.03125 5.710938 -1.164062 6.109375 -1.4375 C 6.503906 -1.71875 6.796875 -2.09375 6.984375 -2.5625 L 8.328125 -2.5625 C 8.109375 -1.800781 7.691406 -1.164062 7.078125 -0.65625 C 6.472656 -0.144531 5.6875 0.109375 4.71875 0.109375 Z M 7.09375 -4.8125 C 7.050781 -5.769531 6.816406 -6.460938 6.390625 -6.890625 C 5.972656 -7.316406 5.414062 -7.53125 4.71875 -7.53125 C 3.96875 -7.53125 3.367188 -7.28125 2.921875 -6.78125 C 2.484375 -6.28125 2.25 -5.625 2.21875 -4.8125 Z M 7.09375 -4.8125 "/></g></g></g><g fill="#15803d" fill-opacity="1"><g transform="translate(241.097471, 101.117004)"><g><path d="M 3.3125 -4.203125 L 0.546875 -8.375 L 2.078125 -8.375 L 4.234375 -4.984375 L 4.28125 -4.984375 L 6.40625 -8.375 L 7.953125 -8.375 L 5.1875 -4.203125 L 7.9375 0 L 6.390625 0 L 4.28125 -3.375 L 4.234375 -3.375 L 2.09375 0 L 0.546875 0 Z M 3.3125 -4.203125 "/></g></g></g></g></g></svg>